<?xml version="1.0" standalone="no"?>
<!DOCTYPE svg PUBLIC "-//W3C//DTD SVG 1.1//EN" "http://www.w3.org/Graphics/SVG/1.1/DTD/svg11.dtd" >
<svg xmlns="http://www.w3.org/2000/svg" xmlns:xlink="http://www.w3.org/1999/xlink" version="1.1">
<metadata></metadata>
<defs>
<font id="paneuropa_neue_beta_1.1Rg" horiz-adv-x="954" >
<font-face units-per-em="2048" ascent="1536" descent="-512" />
<missing-glyph horiz-adv-x="471" />
<glyph horiz-adv-x="0" />
<glyph horiz-adv-x="682" />
<glyph unicode=" "  horiz-adv-x="471" />
<glyph unicode="&#x09;" horiz-adv-x="471" />
<glyph unicode="&#xa0;" horiz-adv-x="471" />
<glyph unicode="!" horiz-adv-x="370" d="M102 45q0 35 24 58.5t58 23.5t58 -23.5t24 -58.5q0 -34 -24 -58t-58 -24t-58 24t-24 58zM137 219v1127h94v-1127h-94z" />
<glyph unicode="&#x22;" horiz-adv-x="434" d="M37 825l92 377h113l-127 -377h-78zM184 825l92 377h115l-127 -377h-80z" />
<glyph unicode="#" horiz-adv-x="1640" d="M96 -4l273 438h-256v90h309l168 269h-324v88h375l309 501l76 -49l-276 -452h397l309 501l76 -49l-277 -452h273v-88h-332l-162 -269h342v-90h-399l-299 -487l-76 49l272 438h-397l-301 -487zM530 524h398l166 269h-400z" />
<glyph unicode="$" horiz-adv-x="999" d="M96 297l84 27q11 -105 88 -186t185 -93v639q-66 25 -116.5 54t-95 71t-68 100t-23.5 131q0 72 25.5 132.5t69 102t96.5 68.5t112 39v107h92v-103q248 -16 334 -270l-76 -29q-30 81 -98 146.5t-160 73.5v-555q34 -13 55.5 -22t55 -24.5t55 -29t50.5 -34t47.5 -41t38.5 -49 t31.5 -59t19 -69.5t7.5 -82q0 -140 -106 -248t-254 -135v-102h-92v102q-70 5 -130 31.5t-98.5 64t-67.5 83.5t-42.5 85.5t-18.5 73.5zM233 1049q0 -57 17.5 -101t52 -73.5t68 -47.5t82.5 -36v503q-96 -20 -158 -90.5t-62 -154.5zM545 51q127 21 199.5 105.5t72.5 185.5 q0 50 -10.5 91t-33 71.5t-45 53t-58 41t-61 29.5t-64.5 25v-602z" />
<glyph unicode="%" horiz-adv-x="1820" d="M106 1081q2 148 104 254t251 105q148 0 252 -103t108 -256q-3 -150 -106.5 -255t-253.5 -105q-147 1 -250 107t-105 253zM201 1081q-3 -104 77 -182t183 -78q107 0 186 77t78 183q-4 110 -80.5 185t-183.5 75q-106 0 -184.5 -77t-75.5 -183zM401 6q154 253 466.5 759 t467.5 759l84 -49q-310 -505 -603.5 -984.5t-330.5 -539.5zM997 391q2 148 104 254t251 105q148 0 252 -103t108 -256q-3 -150 -106.5 -255t-253.5 -105q-147 1 -250 107t-105 253zM1092 391q-3 -104 77 -182t183 -78q107 0 186 77t78 183q-4 110 -80.5 185t-183.5 75 q-106 0 -184.5 -77t-75.5 -183z" />
<glyph unicode="&#x26;" horiz-adv-x="1265" d="M88 283q-24 125 33 227q50 102 134.5 167.5t215.5 131.5q-42 60 -65 133q-35 93 -23 191q17 72 60.5 121t101.5 67q53 20 110 14q54 -6 103 -43q55 -33 85.5 -95t24.5 -148q-2 -49 -21.5 -90.5t-57.5 -76t-77.5 -59.5t-97.5 -55q79 -133 226 -305q7 -7 42.5 -46t53.5 -61 q5 5 25 33q89 139 110 336l100 -8q-28 -234 -129 -387q-6 -11 -32 -47q161 -156 190 -181l-70 -77q-51 43 -188 180q-67 -63 -199 -139q-170 -93 -342 -56q-121 22 -198 99q-85 70 -115 174zM190 311q16 -67 78 -129q68 -55 152 -73q147 -24 272 45q86 45 176 125 q-28 31 -102 114q-146 169 -244 328q-46 -24 -74 -39.5t-69 -42t-68.5 -50.5t-55.5 -57t-46 -69q-41 -83 -19 -152zM485 1114q-9 -67 19 -139q13 -46 59 -119q97 50 148.5 95.5t54.5 107.5q6 102 -64 151q-43 19 -61 19q-34 6 -63 -4q-75 -25 -93 -111z" />
<glyph unicode="'" horiz-adv-x="239" d="M27 1319q0 34 24 58t58 24t57.5 -24t23.5 -58v-10q-9 -84 -86 -222l-59 29q45 48 70 121h-6q-34 0 -58 24t-24 58z" />
<glyph unicode="(" horiz-adv-x="512" d="M72 680q0 88 12 165.5t37 142.5t53 118t71.5 105.5t80.5 91t90 88.5l41 -45q-51 -59 -86.5 -106t-73 -111t-60 -126.5t-37 -144.5t-14.5 -174q0 -209 70 -377.5t215 -320.5l-47 -33q-83 71 -143 141.5t-109.5 158.5t-74.5 195t-25 232z" />
<glyph unicode=")" horiz-adv-x="512" d="M41 -16q145 154 216 323t71 377q0 92 -14.5 174t-37 144.5t-60 126.5t-73 111t-86.5 106l41 45q64 -60 107 -106t91.5 -113.5t77 -135t47.5 -159.5t19 -197q0 -126 -24.5 -232.5t-73.5 -194.5t-109 -158.5t-143 -141.5z" />
<glyph unicode="*" horiz-adv-x="690" d="M150 1360l32 108l140 -71l-29 155h113l-29 -155l141 71l31 -108l-154 -17l113 -112l-88 -66l-70 140l-71 -140l-89 66l113 112z" />
<glyph unicode="+" horiz-adv-x="1071" d="M143 522v94h346v345h93v-345h346v-94h-346v-346h-93v346h-346z" />
<glyph unicode="," horiz-adv-x="294" d="M70 61q0 34 24 58t58 24t57.5 -24t23.5 -58v-10q-9 -77 -86 -223l-59 31q50 53 72 121h-8q-34 0 -58 23.5t-24 57.5z" />
<glyph unicode="-" horiz-adv-x="638" d="M143 522v94h353v-94h-353z" />
<glyph unicode="." horiz-adv-x="301" d="M70 59q0 34 24 58t58 24t57.5 -24t23.5 -58t-23.5 -58t-57.5 -24t-58 24t-24 58z" />
<glyph unicode="/" horiz-adv-x="1173" d="M127 -2q137 227 414.5 677.5t414.5 676.5l76 -43q-278 -452 -541.5 -885t-287.5 -473z" />
<glyph unicode="0" horiz-adv-x="1142" d="M61 713q0 108 20 208.5t62.5 187.5t102 152t143 102.5t182.5 37.5t183 -37.5t143.5 -102.5t101.5 -152.5t62 -187.5t20 -208q0 -222 -56.5 -393t-173.5 -273t-280 -102t-280 102t-173.5 273t-56.5 393zM154 711q0 -314 118.5 -497t298.5 -183t299 183t119 497 q0 162 -46.5 296t-143.5 219t-228 85t-227.5 -85t-143 -219t-46.5 -296z" />
<glyph unicode="1" horiz-adv-x="499" d="M31 1040v105q189 50 366 325v-178v-1294h-94v1223q-95 -128 -272 -181z" />
<glyph unicode="2" horiz-adv-x="1144" d="M25 -2q57 44 148 109.5t156.5 112.5t149.5 113.5t143.5 121.5t121 126t100 137.5t62.5 145.5t24 160q0 135 -94.5 227t-233.5 92q-52 0 -98 -13t-88 -40.5t-70.5 -77.5t-38.5 -118h-117q22 119 87 199.5t146 114.5t177 34q115 0 212.5 -49.5t158.5 -146t61 -220.5 q0 -90 -18.5 -169.5t-60.5 -155.5t-95.5 -143.5t-140 -146t-175.5 -149.5t-218 -166h704v-12v-86h-1003z" />
<glyph unicode="3" horiz-adv-x="1044" d="M66 256l90 43q17 -49 43 -90.5t66.5 -78.5t102.5 -58t138 -21q130 0 234 87t104 220q0 162 -116 248t-312 86h-82v90h82q175 0 277 70t102 203q0 135 -81.5 213t-207.5 78q-52 0 -95.5 -12.5t-70.5 -27.5t-57.5 -48.5t-44 -53t-41.5 -63.5l-84 49q34 59 66 99t78 76 t108 53.5t141 17.5q47 0 98 -12t105 -41t96.5 -71t70 -109t27.5 -148q0 -119 -73 -200t-187 -118q47 -9 86.5 -24.5t79.5 -44.5t67.5 -68.5t44.5 -100.5t17 -137q0 -82 -26.5 -151t-69.5 -115t-99 -78.5t-114.5 -47.5t-116.5 -15q-79 0 -145 18t-111.5 46t-83.5 70 t-61.5 80.5t-44.5 86.5z" />
<glyph unicode="4" horiz-adv-x="1091" d="M29 377l790 1120v-1026h232v-94h-232v-375h-94v375h-696zM211 471h514v729z" />
<glyph unicode="5" horiz-adv-x="1042" d="M39 162l74 67q108 -184 350 -184q42 0 91.5 15t102.5 48.5t96 80t71 118t28 154.5q0 112 -56 203.5t-142 139.5t-181 48q-36 0 -68.5 -6.5t-57 -14.5t-52 -26t-43.5 -30t-40.5 -38.5t-35.5 -39.5t-36 -44.5t-34 -42.5v240v450v95h95h628v-95h-628v-450v-25 q30 46 102 86.5t180 40.5q91 0 176.5 -37t150.5 -100.5t104.5 -156t39.5 -197.5q0 -137 -63.5 -254t-174 -185.5t-241.5 -68.5q-92 0 -161.5 15t-120.5 47.5t-82.5 63.5t-71.5 83z" />
<glyph unicode="6" horiz-adv-x="1069" d="M74 457q0 136 41 271.5t104.5 243t147 206t160.5 166t153 116.5l70 -61q-295 -197 -480 -535q50 40 126 66t145 26q70 0 133 -16.5t121 -55t100 -96t67 -144t25 -193.5q0 -112 -37 -206t-98.5 -155.5t-141 -96t-165.5 -34.5q-228 0 -349.5 134t-121.5 364zM162 469 q0 -93 22 -167t58 -120.5t85 -77t99 -43t104 -12.5q154 0 260.5 106.5t106.5 290.5q0 199 -98 313.5t-248 114.5q-182 0 -285.5 -116.5t-103.5 -288.5z" />
<glyph unicode="7" horiz-adv-x="956" d="M76 1307v94h758h71q-188 -295 -332.5 -682t-212.5 -721h-116q71 326 200.5 675t294.5 634h-663z" />
<glyph unicode="8" horiz-adv-x="1114" d="M61 385q0 48 10 90t24 73t39 60.5t45.5 48t53.5 39.5t51.5 31.5t51.5 26.5q-193 117 -193 301q0 95 34 168t92.5 116.5t131 65.5t156.5 22q83 0 155.5 -22t131.5 -65.5t93 -116.5t34 -168q0 -184 -195 -301q33 -17 51.5 -27t52 -31t53.5 -39.5t45.5 -48t40 -60.5 t24.5 -73.5t10 -89.5q0 -81 -34 -156t-95.5 -134.5t-157 -95.5t-209.5 -36q-115 0 -210.5 36t-157 95.5t-95 134.5t-33.5 156zM158 371q0 -127 113.5 -222.5t285.5 -95.5t284.5 95.5t112.5 222.5q0 71 -25.5 129t-66 95t-93.5 62.5t-106 36.5t-106 11t-106 -11t-106.5 -36.5 t-94.5 -62.5t-66.5 -95t-25.5 -129zM236 1051q0 -107 88.5 -187t232.5 -80t233 80t89 187q0 138 -88.5 211t-233.5 73t-233 -73t-88 -211z" />
<glyph unicode="9" horiz-adv-x="1040" d="M61 950q0 112 37 206t99 155.5t141.5 96t165.5 34.5q229 0 350 -134.5t121 -363.5q0 -136 -41 -272t-104 -243.5t-146 -206t-161 -166t-154 -115.5l-68 59q294 202 479 535q-51 -39 -127 -65t-145 -26q-88 0 -165 28t-141.5 85t-102.5 158t-38 235zM152 952 q0 -200 98.5 -314t249.5 -114q181 0 284 117.5t103 290.5q0 93 -22 167t-58 120.5t-85 77t-99.5 43t-104.5 12.5q-74 0 -139.5 -26.5t-116.5 -76t-80.5 -126.5t-29.5 -171z" />
<glyph unicode=":" horiz-adv-x="286" d="M61 63q0 34 24 58t58 24t58 -24t24 -58t-24 -57.5t-58 -23.5t-58 23.5t-24 57.5zM61 694q0 34 24 58t58 24t58 -24t24 -58t-24 -58t-58 -24t-58 24t-24 58z" />
<glyph unicode=";" horiz-adv-x="286" d="M61 68q0 34 24 58t58 24t58 -24t24 -58v-11q-9 -77 -86 -223l-59 31q47 50 70 121h-7q-34 0 -58 24t-24 58zM61 698q0 34 24 58t58 24t58 -24t24 -58t-24 -58t-58 -24t-58 24t-24 58z" />
<glyph unicode="&#x3c;" horiz-adv-x="794" d="M143 606v70l508 436v-121l-401 -346l401 -348v-121z" />
<glyph unicode="=" horiz-adv-x="1087" d="M193 367v88h749v-88h-749zM193 662v90h749v-90h-749z" />
<glyph unicode="&#x3e;" horiz-adv-x="784" d="M143 176v121l398 348l-398 346v121l498 -436v-70z" />
<glyph unicode="?" horiz-adv-x="917" d="M53 1075q18 55 52 105.5t83 93.5t118.5 68.5t148.5 25.5q47 0 98 -12t105 -40.5t96.5 -70.5t70 -109t27.5 -149q0 -107 -68 -192q-29 -39 -78 -75.5t-88 -58.5t-68.5 -53.5t-29.5 -66.5v-312h-94v349q2 41 33.5 75.5t71.5 56.5t90 58t79 74q43 65 43 145q0 136 -81 214.5 t-207 78.5q-86 0 -148.5 -29.5t-96 -72t-58.5 -103.5h-99zM391 57q0 34 24 58t58 24t58 -24t24 -58t-24 -58t-58 -24t-58 24t-24 58z" />
<glyph unicode="@" horiz-adv-x="1769" d="M84 496q53 342 293 548q126 104 287 153.5t325 47.5q19 0 29 -4q124 -8 246.5 -66t216.5 -157q98 -109 153 -252.5t49 -312.5q0 -37 -6 -47q-16 -213 -80.5 -353t-152.5 -203q-49 -36 -115 -43q-63 0 -115 41q-42 33 -63 94.5t-10 143.5l8 49l-14.5 -14.5t-14.5 -18.5 q-60 -61 -135.5 -96t-153.5 -35q-77 0 -147.5 35t-120.5 96q-100 122 -94 304q18 179 135 305q119 129 283 129q166 0 268 -129q7 -5 16.5 -18.5t10.5 -14.5l4 125h90l-43 -725q-18 -103 39 -164q18 -10 51 -10q42 0 72 26q72 44 125 166t69 316v41q7 152 -40.5 279.5 t-135.5 221.5q-82 88 -186.5 138t-214.5 59h-23q-148 5 -292.5 -39t-260.5 -137q-214 -179 -260 -488q-27 -189 41 -360q76 -183 199 -279q142 -126 311 -145q145 -25 315 35l31 -82q-171 -69 -364 -45q-191 20 -355 168q-155 126 -223 319q-74 197 -47 398zM563 406 q-6 -149 76 -244q34 -45 86.5 -72t110.5 -27q130 0 219 95q45 47 72 112t28 136q9 71 -7.5 137.5t-55.5 111.5q-75 90 -209 90q-57 0 -114 -25.5t-99 -70.5q-101 -101 -107 -243z" />
<glyph unicode="A" horiz-adv-x="1048" d="M8 -2l504 1405l532 -1405h-98l-221 604h-410l-209 -604h-98zM348 696h342l-176 478z" />
<glyph unicode="B" horiz-adv-x="1001" d="M131 0v1331v8q103 17 196 17q30 0 60 -2q119 -8 206.5 -40.5t138 -108.5t50.5 -189q0 -63 -15 -111t-45.5 -82t-56 -53t-67.5 -43q141 -6 231.5 -99t90.5 -259q0 -80 -26.5 -142.5t-73 -105t-114.5 -70t-147 -39.5t-174 -12h-160h-94zM225 90h224q97 0 169.5 19.5 t112.5 48t64.5 68t31.5 72t7 67.5q0 62 -13.5 111.5t-34 81.5t-54 55t-62 34.5t-70.5 18t-68.5 7.5t-64.5 1h-242v-584zM225 752h189q136 0 206 72.5t70 189.5q0 46 -11 84t-27.5 64.5t-44 47t-53.5 32.5t-64 19.5t-66.5 10.5t-70.5 3t-66 -1t-62 -4v-518z" />
<glyph unicode="C" horiz-adv-x="1312" d="M96 672v9q0 182 83 339q85 161 238 258.5t337 99.5h5q129 0 245 -52q118 -52 213 -150l-68 -64q-169 172 -387 172h-8q-119 -1 -225.5 -51.5t-180.5 -134.5q-73 -82 -116 -194q-42 -109 -42 -227v-5q-1 -162 71 -301.5t202.5 -225t290.5 -88.5q128 0 241.5 57.5 t192.5 159.5l74 -59q-94 -119 -226 -185.5t-282 -66.5q-138 3 -261.5 61.5t-210.5 154.5t-137 225q-49 126 -49 263v5z" />
<glyph unicode="D" horiz-adv-x="1163" d="M111 -2v1345h282q314 0 505.5 -187.5t191.5 -485.5q0 -195 -85.5 -347.5t-244.5 -238.5t-367 -86h-188h-94zM205 82h176q183 0 324.5 76t217.5 209.5t76 302.5q0 261 -170 425.5t-448 164.5h-176v-1178z" />
<glyph unicode="E" horiz-adv-x="874" d="M111 0v82v582v84v514v84h94h565v-84h-565v-514h528v-84h-528v-582h600v-82h-600h-94z" />
<glyph unicode="F" horiz-adv-x="768" d="M111 2v1348h598v-84h-504v-516h457v-82h-457v-666h-94z" />
<glyph unicode="G" horiz-adv-x="1519" d="M106 672v9q0 181 83 339q85 162 238 260.5t337 99.5q162 0 303 -80t233 -217l-77 -53q-79 120 -198.5 187.5t-260.5 68.5q-160 -3 -290.5 -88t-202 -224.5t-70.5 -301.5q-1 -161 71 -300.5t202.5 -225t289.5 -87.5q146 0 269.5 73.5t199 195.5t92.5 268h-473v86h571v-10 v-5q0 -138 -49 -264q-51 -129 -138 -225t-210.5 -154t-261.5 -59q-138 1 -262 59t-210.5 154t-136.5 225q-49 126 -49 264v5z" />
<glyph unicode="H" horiz-adv-x="1148" d="M111 -2v1345h94v-595h758v595h94v-1345h-94v672h-758v-672h-94z" />
<glyph unicode="I" horiz-adv-x="311" d="M115 0v1348h94v-1348h-94z" />
<glyph unicode="J" horiz-adv-x="548" d="M39 53l63 66q25 -38 66 -55q26 -11 53 -11q13 0 27 3q39 8 67.5 56t28.5 130v1101h94v-1101q0 -81 -23.5 -141t-61 -90.5t-83.5 -42.5q-28 -7 -54 -7q-18 0 -36 3q-44 8 -82 31.5t-59 57.5z" />
<glyph unicode="K" horiz-adv-x="1101" d="M111 2v1346h94v-609l678 609h141l-713 -639l774 -707h-139l-741 674v-674h-94z" />
<glyph unicode="L" horiz-adv-x="851" d="M121 -2v86v1262h94v-1262h590v-86h-590h-94z" />
<glyph unicode="M" horiz-adv-x="1437" d="M12 0l305 1401l404 -1211l403 1211l303 -1401h-92l-223 1124l-391 -1159l-393 1159l-222 -1124h-94z" />
<glyph unicode="N" horiz-adv-x="1363" d="M111 0v1409l1048 -1259v1196h94v-1448l-1048 1265v-1163h-94z" />
<glyph unicode="O" horiz-adv-x="1521" d="M94 674v5q0 137 50 265q52 130 140 225.5t212.5 153t263.5 57.5q144 -4 268.5 -63.5t210.5 -156t136 -223t52 -263.5v-5q0 -137 -50 -265q-51 -130 -139 -226t-213 -154t-265 -59q-181 0 -334.5 95t-242.5 258.5t-89 355.5zM188 674q0 -124 45.5 -238t122 -196 t182.5 -130.5t222 -48.5q160 1 294 85q133 86 207 226q72 137 72 293v9q-8 168 -82.5 306.5t-203.5 220.5t-287 85q-160 -1 -293 -85.5t-207 -224.5q-72 -136 -72 -293v-9z" />
<glyph unicode="P" horiz-adv-x="817" d="M111 0v1339q95 10 174 11h16q71 0 139 -8q76 -9 134.5 -34.5t103.5 -66.5t68.5 -105.5t23.5 -148.5q0 -170 -112 -264t-298 -94l-155 -2v-627h-94zM205 707h143q93 0 162 25t107.5 67t56.5 89.5t18 100.5q0 281 -386 281q-48 0 -101 -4v-559z" />
<glyph unicode="Q" horiz-adv-x="1583" d="M123 670q0 140 51.5 269.5t139 225.5t212.5 154t265 59q186 -1 340.5 -99t241 -260t85.5 -349q-5 -166 -69 -312t-181 -239q61 -40 131 -64l-67 -71q-85 45 -131 84q-157 -105 -350 -105q-182 0 -335.5 94.5t-243 257.5t-89.5 355zM217 670q0 -124 45.5 -238t123 -196 t183.5 -130.5t222 -48.5q149 0 276 76q-42 40 -94 113l55 43q55 -69 105 -113q225 196 231 494v5q0 119 -42 229q-43 112 -118.5 195t-183.5 133.5t-229 51.5q-161 -2 -293.5 -87t-206.5 -225t-74 -302z" />
<glyph unicode="R" horiz-adv-x="950" d="M111 2v1341q109 9 205 11h13q89 0 164 -20q81 -20 139.5 -59t91 -111t32.5 -173q0 -142 -107 -244.5t-280 -105.5l573 -639h-123l-553 639h-61v-639h-94zM205 721h145q91 0 159 27.5t102.5 71t50.5 87t16 86.5q0 280 -371 280q-48 0 -102 -5v-547z" />
<glyph unicode="S" horiz-adv-x="913" d="M43 299l88 25q13 -114 97 -197.5t204 -83.5q102 0 180.5 46.5t116 114t37.5 140.5q0 45 -10 84t-25 66.5t-40 51.5t-48 39t-55.5 30t-56 23.5t-57 19.5t-50.5 18q-57 22 -99.5 43t-88 53.5t-74.5 68.5t-47.5 87t-18.5 112q0 85 34.5 153.5t90.5 110t121.5 63.5t132.5 22 q261 0 356 -269l-77 -33q-32 88 -104.5 154t-172.5 66q-121 0 -208 -78t-87 -178q0 -28 5.5 -53.5t12 -45.5t21.5 -39.5t26 -32.5t33 -28t34 -22.5t39.5 -20t38 -17t40 -16t37.5 -14.5q140 -54 195 -87q176 -105 191 -294q1 -18 1 -37q0 -105 -61.5 -196t-158 -142 t-200.5 -51q-78 0 -143.5 25t-107.5 62.5t-73.5 86t-47 90.5t-21.5 80z" />
<glyph unicode="T" horiz-adv-x="831" d="M41 1255v93h750v-93h-328v-1255h-94v1255h-328z" />
<glyph unicode="U" horiz-adv-x="1171" d="M102 481v865h95v-865q0 -106 32.5 -191.5t87.5 -138t124 -80.5t145 -28t145 28t124 80.5t87.5 138t32.5 191.5v865h94v-865q0 -146 -54.5 -261.5t-165.5 -185t-263 -69.5q-115 0 -207.5 40t-152.5 110.5t-92 164t-32 201.5z" />
<glyph unicode="V" horiz-adv-x="1026" d="M20 1346h101l397 -1196l397 1196h101l-498 -1422z" />
<glyph unicode="W" horiz-adv-x="1611" d="M6 1341h94l344 -1169l357 1245l358 -1245l344 1169h94l-438 -1421l-358 1215l-357 -1215z" />
<glyph unicode="X" horiz-adv-x="1245" d="M63 2l529 737l-430 609h96l385 -537l385 537h94l-430 -609l531 -737h-111l-469 666l-471 -666h-109z" />
<glyph unicode="Y" horiz-adv-x="1155" d="M35 1346h115l425 -621l426 621h115l-493 -717v-629h-95v629z" />
<glyph unicode="Z" horiz-adv-x="1081" d="M14 2l848 1255h-743v91h917l-848 -1256h834v-90h-1008z" />
<glyph unicode="[" horiz-adv-x="430" d="M102 6v1346v47h48h239v-94h-192v-1252h192v-94h-239h-48v47z" />
<glyph unicode="\" horiz-adv-x="1169" d="M139 1309l76 43q137 -227 414.5 -677t414.5 -677l-75 -47q-15 24 -282.5 464t-547.5 894z" />
<glyph unicode="]" horiz-adv-x="430" d="M41 -43v94h192v1252h-192v94h240h47v-47v-1346v-47h-47h-240z" />
<glyph unicode="^" horiz-adv-x="1017" d="M113 678l352 672h84l356 -672h-104l-295 549l-289 -549h-104z" />
<glyph unicode="_" horiz-adv-x="987" d="M104 -297h783v-94h-783v94z" />
<glyph unicode="`" horiz-adv-x="618" d="M178 1354l82 47l182 -289h-96z" />
<glyph unicode="a" d="M53 410v9q-1 110 49 207q52 101 145 163.5t206 64.5q94 -5 182.5 -49.5t126.5 -118.5l-4 131h94v-815h-94l4 133q-49 -78 -133 -124t-176 -46q-113 2 -206 65t-145 164q-50 97 -49 207v9zM147 410v-6q-1 -136 85 -238q88 -104 221 -107q136 1 222 105q83 101 83 236v10 q0 159 -88 256q-85 94 -217 94q-133 -2 -221 -106q-86 -101 -85 -238v-6z" />
<glyph unicode="b" horiz-adv-x="972" d="M102 0v1483h95v-787q40 67 126 109t179 47q113 -1 206 -63q94 -62 144 -163q50 -99 49 -212q0 -120 -51 -221.5t-144 -165t-206 -66.5q-85 0 -168.5 42t-134.5 112v-115h-95zM197 410q0 -86 36 -164.5t107.5 -131t161.5 -55.5q132 5 220 109q86 102 85 236v6v6 q1 134 -85 236q-88 104 -220 106q-147 0 -223.5 -96t-81.5 -252z" />
<glyph unicode="c" horiz-adv-x="862" d="M72 408q0 116 53 217t148.5 163.5t211.5 63.5q89 0 169.5 -40t138.5 -110l-72 -59q-45 53 -106.5 83.5t-129.5 31.5q-90 -1 -164 -50t-114.5 -128.5t-40.5 -171.5t40.5 -171.5t114.5 -129t164 -50.5q79 0 148 41.5t115 110.5l77 -49q-57 -89 -146.5 -142.5t-193.5 -54.5 q-116 1 -211.5 63.5t-148.5 164t-53 217.5z" />
<glyph unicode="d" horiz-adv-x="960" d="M59 410q-1 115 49 216t143 163.5t208 64.5q81 0 157.5 -37.5t133.5 -101.5q10 -15 14 -19v787h94v-1073v-408h-94v113q-140 -154 -305 -154q-170 5 -286 139q-114 131 -114 304v6zM154 410v-6q0 -136 85 -238q87 -104 220 -107q131 5 219 109q86 102 86 236v6q1 14 1 27 q1 129 -79 223q-84 101 -217 100h-10q-133 -2 -220 -106q-85 -101 -85 -238v-6z" />
<glyph unicode="e" horiz-adv-x="927" d="M68 399q0 114 51 215.5t144 165.5t204 66q159 0 273.5 -116.5t129.5 -280.5v-9h-702q-3 -29 -3 -57q1 -61 17 -113q24 -76 74 -124t113.5 -74.5t132.5 -28.5q143 0 254 111l78 -54q-69 -71 -155.5 -108.5t-170.5 -39.5h-10q-78 0 -154 28q-80 30 -141 86t-98 143t-37 190 zM184 535h572q-36 95 -113.5 155t-175.5 60q-93 0 -170.5 -61.5t-112.5 -153.5z" />
<glyph unicode="f" horiz-adv-x="475" d="M63 729v94h127v482q0 8 5 43q14 82 73 125q51 32 125 32q29 0 43 -2v-96q-28 4 -43 4q-48 0 -71 -18q-27 -17 -35 -60q0 -4 -1 -13.5t-1 -14.5v-482h147v-94h-147v-727h-95v727h-127z" />
<glyph unicode="g" horiz-adv-x="1013" d="M104 422q-1 123 47.5 223t141 159t211.5 60q89 0 170 -44t141 -118v117h94v-805v-9q0 -163 -105 -273q-107 -114 -269 -117h-7q-111 0 -188 33q-79 34 -152 110l68 66q63 -65 122 -90q58 -25 150 -25h7q124 1 203 87q77 85 77 212v6v125q-125 -159 -311 -159 q-123 1 -215 59.5t-139 158.5q-46 97 -46 219v5zM199 422q0 -155 79 -250t226 -98q149 3 229 96.5t82 251.5v7q0 144 -84 240q-86 98 -227 101q-141 -4 -224 -101q-81 -95 -81 -240v-7z" />
<glyph unicode="h" horiz-adv-x="864" d="M102 2v1481h95v-783q46 63 115 102.5t151 39.5q128 0 217.5 -77.5t89.5 -211.5v-551h-94v551q0 93 -59 153t-148 60q-93 0 -182.5 -77t-89.5 -181v-506h-95z" />
<glyph unicode="i" horiz-adv-x="348" d="M92 1139q0 34 24 58t58 24t58 -24t24 -58t-24 -58t-58 -24t-58 24t-24 58zM127 4v815h94v-815h-94z" />
<glyph unicode="j" horiz-adv-x="370" d="M102 1137q0 34 24 58t58 24q35 0 59.5 -24t24.5 -58t-24.5 -58t-59.5 -24q-34 0 -58 24t-24 58zM137 -395v1214h96v-1214h-96z" />
<glyph unicode="k" horiz-adv-x="819" d="M102 2v1481h95v-965l14 10l383 291h156l-439 -334l492 -483h-135l-461 455l-10 8v-463h-95z" />
<glyph unicode="l" horiz-adv-x="299" d="M102 2v1481h95v-1481h-95z" />
<glyph unicode="m" horiz-adv-x="1378" d="M102 2v817h95v-129q42 72 109.5 117t158.5 45q190 0 252 -162q53 79 126.5 121.5t160.5 42.5q136 0 204 -73t68 -238v-541h-94v541q0 223 -181 223q-55 0 -100.5 -20t-76 -54t-50 -70.5t-33.5 -78.5v-541h-94v541q0 123 -50 175t-142 52q-94 0 -162.5 -76t-95.5 -182 v-510h-95z" />
<glyph unicode="n" horiz-adv-x="874" d="M102 4v815h95v-108q47 70 115 107.5t177 37.5q124 0 203.5 -78.5t79.5 -234.5v-539h-94v520q0 124 -54.5 185t-140.5 61q-123 0 -198.5 -73.5t-87.5 -164.5v-528h-95z" />
<glyph unicode="o" horiz-adv-x="946" d="M72 410q2 119 50 219t139.5 161.5t207.5 61.5q181 -4 295 -128q111 -121 110 -304v-10v-10q0 -186 -106 -308q-110 -124 -297 -125q-123 1 -215 59t-138 158q-46 97 -46 221v5zM166 410q0 -154 79.5 -251t225.5 -98q147 3 229 99q80 93 80 243v7v10q0 144 -82 238 q-85 96 -229 100q-94 -3 -164.5 -53.5t-104.5 -127.5t-34 -167z" />
<glyph unicode="p" horiz-adv-x="962" d="M102 -397v1214h95v-139q53 71 134 112t169 41q170 -6 286 -139q113 -131 113 -303v-6q1 -114 -49.5 -215t-143 -164t-204.5 -65q-95 6 -177.5 47t-127.5 108v-491h-95zM197 383q5 -157 81 -253.5t224 -96.5q132 3 218 107q85 102 85 237v6q1 89 -36.5 168t-108.5 129 t-158 51q-90 -3 -161 -54.5t-107.5 -129.5t-36.5 -164z" />
<glyph unicode="q" horiz-adv-x="964" d="M63 387v6q0 172 114 303q116 134 286 140q88 0 170 -41.5t135 -112.5v139h94v-1214h-94v491q-71 -71 -140 -109.5t-165 -45.5q-112 2 -205.5 64.5t-144.5 163.5t-50 216zM158 387q0 -139 86 -243t219 -107q143 0 221.5 98.5t83.5 251.5q0 86 -36.5 164.5t-108 130.5 t-160.5 55q-133 -3 -219 -107t-86 -243z" />
<glyph unicode="r" horiz-adv-x="598" d="M102 2v817h95v-125q27 68 105 100q49 21 100 20q30 0 60 -7q82 -19 120 -88l-52 -68q-36 65 -92 81q-22 6 -42 6q-34 0 -65 -16q-51 -26 -90.5 -85.5t-43.5 -132.5v-502h-95z" />
<glyph unicode="s" horiz-adv-x="737" d="M57 184l74 37q25 -71 88 -120.5t160 -49.5q47 0 103 29t77 78q10 23 10.5 62t-8.5 63q-16 40 -60.5 62.5t-125.5 41.5q-44 10 -78 21t-73.5 31t-66 45t-44 64t-17.5 87q0 94 67.5 154.5t184.5 60.5q82 0 147.5 -35t106.5 -96l-65 -55q-88 108 -179 108 q-79 0 -127.5 -40.5t-48.5 -96.5q0 -33 11 -58t27.5 -41t46.5 -28.5t57 -19.5t69 -15q56 -10 98.5 -25t86 -43.5t67 -77.5t23.5 -116q0 -42 -19 -84.5t-55 -79t-97 -59.5t-137 -23q-116 0 -200.5 63t-102.5 156z" />
<glyph unicode="t" horiz-adv-x="466" d="M51 725v94h135v400h95v-400h135v-94h-135v-723h-95v723h-135z" />
<glyph unicode="u" horiz-adv-x="892" d="M102 276v543h95v-543q0 -98 77 -161.5t166 -63.5q91 0 168.5 63.5t77.5 161.5v543h94v-543q0 -125 -97 -217t-243 -92q-144 0 -241 92t-97 217z" />
<glyph unicode="v" horiz-adv-x="788" d="M31 821h100l262 -669l262 669h101l-363 -903z" />
<glyph unicode="w" horiz-adv-x="1222" d="M27 817h100l213 -635l268 723l269 -723l213 635h100l-313 -903l-269 770l-268 -770z" />
<glyph unicode="x" horiz-adv-x="815" d="M20 6l332 449l-264 366h98l220 -295l217 295h98l-262 -366l332 -449h-117l-268 375l-269 -375h-117z" />
<glyph unicode="y" horiz-adv-x="755" d="M14 819h101l260 -672l264 672h98l-475 -1212h-102l166 418z" />
<glyph unicode="z" horiz-adv-x="813" d="M14 2l574 723h-463v94h657l-573 -723h541v-94h-736z" />
<glyph unicode="{" horiz-adv-x="477" d="M102 518v90q24 0 43.5 9.5t31.5 28t21 40t13 51.5t6.5 56t2 59.5t-1.5 55.5t-3 52t-2 41q-1 18 -2 52q-1 53 -2 99t10 83t33.5 63.5t68.5 41t115 14.5v-84q-38 0 -64.5 -5.5t-41.5 -20t-23 -28.5t-9.5 -41.5t-0.5 -47t4 -58.5t4 -63q3 -67 3 -114.5t-5.5 -118.5 t-25.5 -124.5t-54 -83.5q34 -33 54 -87.5t25.5 -125.5t5.5 -118.5t-3 -114.5q-1 -25 -4 -63.5t-4 -58t0.5 -47t9.5 -41t23 -27.5t41.5 -19.5t64.5 -5.5v-88q-69 0 -115 15t-68.5 42t-33.5 65t-10 84t2 98q1 33 2 50q0 11 2 41t3 52t1.5 56t-2 60t-6.5 56t-13 51.5t-21 40.5 t-31.5 28.5t-43.5 9.5z" />
<glyph unicode="|" horiz-adv-x="602" d="M264 -182v1644h94v-1644h-94z" />
<glyph unicode="}" horiz-adv-x="479" d="M41 -137q33 0 57 5t39.5 12.5t24.5 23.5t13 29.5t4.5 38.5t-1 43.5t-4.5 51.5t-4 56q-16 346 82 446q-98 92 -82 443q1 23 4.5 62t4.5 58t-0.5 47t-9.5 41.5t-23 28t-41.5 20t-63.5 5.5v86q70 0 116.5 -15t69 -43t33 -67t8.5 -86.5t-4 -102.5q-1 -26 -2 -40q0 -6 -2 -40 t-2 -52.5t-0.5 -55.5t2.5 -60t7.5 -55.5t13.5 -52.5t21.5 -39.5t31.5 -29t43 -9.5v-90q-24 0 -43 -9.5t-31.5 -29t-21.5 -39.5t-13.5 -52t-7.5 -55.5t-2.5 -60.5t0.5 -56t2 -53t2 -42q1 -13 2 -38q2 -53 4 -100t-8.5 -86t-33 -67t-69 -43.5t-116.5 -15.5v88z" />
<glyph unicode="~" horiz-adv-x="716" d="M158 543q38 32 78 39.5t65 0.5t66 -24q35 -13 54.5 -18t50 1.5t58.5 32.5l60 -63q-36 -34 -70.5 -49.5t-68.5 -13.5t-55.5 8t-57.5 20q-29 12 -43.5 16.5t-38 2t-43.5 -18.5z" />
<glyph unicode="&#xa7;" horiz-adv-x="1142" d="M102 725q0 191 199 344q-76 70 -76 166q0 64 32 113.5t83.5 76.5t108.5 40.5t116 13.5q201 0 377 -111l-53 -80q-154 96 -324 96q-38 0 -77.5 -7t-79.5 -22.5t-65.5 -46.5t-25.5 -73q0 -29 17 -55.5t39 -45t67 -41t76 -35.5t90 -36q45 -17 70.5 -27t68 -29t67.5 -32.5 t60.5 -36t56 -42.5t44.5 -48.5t37 -57.5t21.5 -66t8.5 -77q0 -193 -200 -348q78 -72 78 -166q0 -64 -32 -113t-84 -76.5t-109.5 -41t-117.5 -13.5q-188 0 -374 115l49 78q165 -100 325 -100q38 0 78 7.5t80 23.5t66 47.5t26 72.5q0 30 -17 57t-39.5 46t-67 40.5t-75.5 34 t-89 33.5q-175 72 -244 114q-161 99 -186 246q-5 30 -5 62zM197 725q0 -38 12 -71.5t28 -59t48.5 -51.5t57 -42.5t70 -38t71.5 -32.5t77 -31q7 -3 10 -4q78 -24 189 -82q87 70 137.5 139t50.5 154q0 38 -12 71.5t-29.5 59.5t-50 51.5t-59 42.5t-72 37.5t-74.5 32.5t-80 31 q-142 57 -184 82q-190 -129 -190 -289z" />
<glyph unicode="&#xa8;" horiz-adv-x="1705" d="M348 1090q0 36 26 62t62 26q39 0 65.5 -26t26.5 -62q0 -38 -26 -64.5t-66 -26.5q-37 0 -62.5 26.5t-25.5 64.5zM670 1090q0 35 26.5 61.5t61.5 26.5q36 0 62 -26t26 -62q0 -38 -25.5 -64.5t-62.5 -26.5q-36 0 -62 26.5t-26 64.5z" />
<glyph unicode="&#xac;" horiz-adv-x="1107" d="M164 725v94h794v-405h-86l-2 311h-706z" />
<glyph unicode="&#xad;" horiz-adv-x="1122" d="M164 725v94h794v-94h-794z" />
<glyph unicode="&#xb0;" horiz-adv-x="1705" d="M446 1014q0 95 66.5 161t161.5 66q91 0 156 -66t65 -161q0 -91 -65 -156t-156 -65q-95 0 -161.5 65t-66.5 156zM535 1014q0 -57 40 -99.5t99 -42.5q55 0 98 43t43 99q0 60 -42.5 103.5t-98.5 43.5q-59 0 -99 -43t-40 -104z" />
<glyph unicode="&#xb4;" horiz-adv-x="1705" d="M539 948l182 289l82 -47l-168 -242h-96z" />
<glyph unicode="&#xc0;" horiz-adv-x="1048" d="M8 -2l504 1405l532 -1405h-98l-221 604h-410l-209 -604h-98zM313 1722l82 47l183 -288h-97zM348 696h342l-176 478z" />
<glyph unicode="&#xc1;" horiz-adv-x="1048" d="M8 -2h98l209 604h410l221 -604h98l-532 1405zM348 696l166 478l176 -478h-342zM440 1475l183 288l82 -47l-168 -241h-97z" />
<glyph unicode="&#xc4;" horiz-adv-x="1048" d="M8 -2l504 1405l532 -1405h-98l-221 604h-410l-209 -604h-98zM264 1616q0 36 26 62t62 26q39 0 65.5 -26t26.5 -62q0 -38 -26 -64t-66 -26q-37 0 -62.5 26t-25.5 64zM348 696h342l-176 478zM586 1616q0 35 26.5 61.5t61.5 26.5q36 0 62 -26t26 -62q0 -38 -25.5 -64 t-62.5 -26q-36 0 -62 26t-26 64z" />
<glyph unicode="&#xc5;" horiz-adv-x="1048" d="M8 -2l504 1405l532 -1405h-98l-221 604h-410l-209 -604h-98zM279 1665q0 95 66 161t161 66q91 0 156 -66t65 -161q0 -91 -65 -156t-156 -65q-95 0 -161 65t-66 156zM348 696h342l-176 478zM367 1665q0 -57 40 -99t99 -42q56 0 98.5 43t42.5 98q0 60 -42.5 103.5 t-98.5 43.5q-59 0 -99 -43t-40 -104z" />
<glyph unicode="&#xc6;" horiz-adv-x="1394" d="M12 2l633 1333v6h41h53h561v-84h-561v-509h527v-86h-527v-574h594v-86h-594h-94v86v574h-215l-317 -660h-101zM459 748h186v352z" />
<glyph unicode="&#xc8;" horiz-adv-x="874" d="M111 0v82v582v84v514v84h94h565v-84h-565v-514h528v-84h-528v-582h600v-82h-600h-94zM270 1722l82 47l183 -288h-97z" />
<glyph unicode="&#xc9;" horiz-adv-x="874" d="M111 0h94h600v82h-600v582h528v84h-528v514h565v84h-565h-94v-84v-514v-84v-582v-82zM371 1475l182 288l82 -47l-168 -241h-96z" />
<glyph unicode="&#xcb;" horiz-adv-x="874" d="M111 0v82v582v84v514v84h94h565v-84h-565v-514h528v-84h-528v-582h600v-82h-600h-94zM172 1616q0 36 26 62t62 26q39 0 65.5 -26t26.5 -62q0 -38 -26 -64t-66 -26q-37 0 -62.5 26t-25.5 64zM494 1616q0 35 26.5 61.5t61.5 26.5q36 0 62 -26t26 -62q0 -38 -25.5 -64 t-62.5 -26q-36 0 -62 26t-26 64z" />
<glyph unicode="&#xcc;" horiz-adv-x="292" d="M-59 1724l82 48l182 -289h-96zM100 0v1348h95v-1348h-95z" />
<glyph unicode="&#xcd;" horiz-adv-x="280" d="M92 1475l182 288l82 -47l-168 -241h-96zM98 0h95v1348h-95v-1348z" />
<glyph unicode="&#xcf;" horiz-adv-x="292" d="M-102 1616q0 36 26 62t62 26q39 0 65.5 -26t26.5 -62q0 -38 -26 -64t-66 -26q-37 0 -62.5 26t-25.5 64zM100 0v1348h95v-1348h-95zM219 1616q0 35 26.5 61.5t61.5 26.5q36 0 62 -26t26 -62q0 -38 -25.5 -64t-62.5 -26q-36 0 -62 26t-26 64z" />
<glyph unicode="&#xd2;" horiz-adv-x="1521" d="M94 674q-1 140 50.5 269.5t139.5 225.5t212.5 153.5t263.5 57.5q144 -4 268.5 -63.5t210.5 -156t136 -223t52 -263.5q1 -140 -50 -269.5t-139 -226t-213 -154.5t-265 -59q-181 0 -334.5 95t-242.5 258.5t-89 355.5zM188 674q0 -124 45.5 -238t122 -196t182.5 -130.5 t222 -48.5q160 1 293.5 85.5t207.5 225t72 302.5q-8 168 -82.5 306.5t-203.5 220.5t-287 85q-160 -1 -293 -85.5t-207 -224.5t-72 -302zM549 1737l82 47l182 -289h-96z" />
<glyph unicode="&#xd3;" horiz-adv-x="1519" d="M92 670q0 -191 89.5 -354t243.5 -258t335 -95q185 2 339 99t241 258.5t87 349.5q-2 184 -86 343t-237.5 259t-343.5 106q-140 -1 -265 -59t-213 -153.5t-139.5 -225t-50.5 -270.5zM186 670q-1 121 42.5 233.5t119 196t183.5 133.5t229 51q158 -3 287 -85.5t203.5 -221.5 t82.5 -307q0 -162 -73.5 -302t-206 -225t-293.5 -86q-156 0 -288 82t-209 223.5t-77 307.5zM711 1497l182 289l82 -47l-168 -242h-96z" />
<glyph unicode="&#xd6;" horiz-adv-x="1521" d="M94 674q-1 140 50.5 269.5t139.5 225.5t212.5 153.5t263.5 57.5q144 -4 268.5 -63.5t210.5 -156t136 -223t52 -263.5q1 -140 -50 -269.5t-139 -226t-213 -154.5t-265 -59q-181 0 -334.5 95t-242.5 258.5t-89 355.5zM188 674q0 -124 45.5 -238t122 -196t182.5 -130.5 t222 -48.5q160 1 293.5 85.5t207.5 225t72 302.5q-8 168 -82.5 306.5t-203.5 220.5t-287 85q-160 -1 -293 -85.5t-207 -224.5t-72 -302zM502 1616q0 36 26 62t62 26q39 0 65.5 -26t26.5 -62q0 -38 -26 -64t-66 -26q-37 0 -62.5 26t-25.5 64zM823 1616q0 35 26.5 61.5 t61.5 26.5q36 0 62 -26t26 -62q0 -38 -25.5 -64t-62.5 -26q-36 0 -62 26t-26 64z" />
<glyph unicode="&#xd8;" horiz-adv-x="1521" d="M92 670q0 140 51 269t138 225.5t212 154t265 57.5q184 0 334 -88l100 154l82 -47l-105 -168q124 -101 192.5 -245t68.5 -312q0 -186 -87.5 -348t-243 -260.5t-341.5 -98.5q-163 0 -314 82l-75 -125l-80 51l76 129q-128 98 -200.5 247t-72.5 323zM186 670q0 -148 61 -277 t169 -211l628 1024q-157 82 -286 82q-160 0 -293 -88t-206 -229.5t-73 -300.5zM494 123q123 -66 264 -66q160 0 293.5 86t208.5 226.5t75 300.5q0 139 -58 263t-159 214z" />
<glyph unicode="&#xd9;" horiz-adv-x="1171" d="M102 481v865h95v-865q0 -106 32.5 -191.5t87.5 -138t124 -80.5t145 -28t145 28t124 80.5t87.5 138t32.5 191.5v865h94v-865q0 -146 -54.5 -261.5t-165.5 -185t-263 -69.5q-115 0 -207.5 40t-152.5 110.5t-92 164t-32 201.5zM406 1722l81 47l183 -288h-97z" />
<glyph unicode="&#xda;" horiz-adv-x="1171" d="M102 481q0 -108 32 -201.5t92 -164t152.5 -110.5t207.5 -40q152 0 263 69.5t165.5 185t54.5 261.5v865h-94v-865q0 -106 -32.5 -191.5t-87.5 -138t-124 -80.5t-145 -28t-145 28t-124 80.5t-87.5 138t-32.5 191.5v865h-95v-865zM557 1475l182 288l82 -47l-168 -241h-96z " />
<glyph unicode="&#xdc;" horiz-adv-x="1171" d="M102 481v865h95v-865q0 -106 32.5 -191.5t87.5 -138t124 -80.5t145 -28t145 28t124 80.5t87.5 138t32.5 191.5v865h94v-865q0 -146 -54.5 -261.5t-165.5 -185t-263 -69.5q-115 0 -207.5 40t-152.5 110.5t-92 164t-32 201.5zM332 1616q0 36 26 62t62 26q39 0 65.5 -26 t26.5 -62q0 -38 -26 -64t-66 -26q-37 0 -62.5 26t-25.5 64zM653 1616q0 35 26.5 61.5t61.5 26.5q36 0 62 -26t26 -62q0 -38 -25.5 -64t-62.5 -26q-36 0 -62 26t-26 64z" />
<glyph unicode="&#xdd;" horiz-adv-x="1150" d="M35 1346l493 -717v-629h95v629l493 717h-115l-426 -621l-425 621h-115zM506 1475l182 288l82 -47l-168 -241h-96z" />
<glyph unicode="&#xdf;" horiz-adv-x="1042" d="M86 639v100h96v246q0 163 90 256q89 105 240 105q112 0 195 -62t124 -160q33 -81 33 -141q0 -87 -28 -147q-39 -93 -113 -136q17 -7 34 -17t35.5 -22t28.5 -18q70 -61 102.5 -142t32.5 -143q0 -96 -36 -172q-38 -94 -117 -153q-79 -58 -189 -58q-86 0 -151 33l39 90 q74 -24 112 -24q68 0 127 39q72 64 90 112q25 81 25 133q0 128 -98 205q-82 76 -256 76v100q95 0 157 37t91 96q18 74 18 103q-13 78 -27 104q-28 74 -88.5 121t-140.5 47q-97 0 -170 -73q-61 -85 -61 -189v-977h-99v631h-96z" />
<glyph unicode="&#xe0;" d="M53 410q-2 115 49.5 216t144.5 163.5t206 64.5q94 -5 182.5 -49.5t126.5 -118.5l-4 131h94v-815h-94l4 133q-49 -78 -133 -124t-176 -46q-113 2 -206 65t-144.5 164t-49.5 216zM147 410q-2 -140 85.5 -244t220.5 -107q136 0 222 104.5t83 246.5q0 159 -88 256 q-85 94 -217 94q-133 -3 -220.5 -106.5t-85.5 -243.5zM315 1190l82 47l183 -289h-97z" />
<glyph unicode="&#xe1;" d="M53 410q-2 -115 49.5 -216t144.5 -164t206 -65q92 0 176 46t133 124l-4 -133h94v815h-94l4 -131q-38 74 -126.5 118.5t-182.5 49.5q-113 -2 -206 -64.5t-144.5 -163.5t-49.5 -216zM147 410q-2 140 85.5 243.5t220.5 106.5q132 0 217 -94q88 -97 88 -256 q3 -142 -83 -246.5t-222 -104.5q-133 3 -220.5 107t-85.5 244zM387 948l182 289l82 -47l-168 -242h-96z" />
<glyph unicode="&#xe2;" d="M53 410q-2 115 49.5 216t144.5 163.5t206 64.5q94 -5 182.5 -49.5t126.5 -118.5l-4 131h94v-815h-94l4 133q-49 -78 -133 -124t-176 -46q-113 2 -206 65t-144.5 164t-49.5 216zM147 410q-2 -140 85.5 -244t220.5 -107q136 0 222 104.5t83 246.5q0 159 -88 256 q-85 94 -217 94q-133 -3 -220.5 -106.5t-85.5 -243.5zM270 1032l189 201l188 -201h-80l-108 111l-109 -111h-80z" />
<glyph unicode="&#xe4;" d="M53 410q-2 115 49.5 216t144.5 163.5t206 64.5q94 -5 182.5 -49.5t126.5 -118.5l-4 131h94v-815h-94l4 133q-49 -78 -133 -124t-176 -46q-113 2 -206 65t-144.5 164t-49.5 216zM147 410q-2 -140 85.5 -244t220.5 -107q136 0 222 104.5t83 246.5q0 159 -88 256 q-85 94 -217 94q-133 -3 -220.5 -106.5t-85.5 -243.5zM215 1090q0 36 26 62t62 26q39 0 65.5 -26t26.5 -62q0 -38 -26.5 -64.5t-65.5 -26.5q-37 0 -62.5 26.5t-25.5 64.5zM537 1090q0 35 26.5 61.5t61.5 26.5q36 0 62 -26t26 -62q0 -38 -25.5 -64.5t-62.5 -26.5 q-36 0 -62 26.5t-26 64.5z" />
<glyph unicode="&#xe5;" d="M53 410q-2 115 49.5 216t144.5 163.5t206 64.5q94 -5 182.5 -49.5t126.5 -118.5l-4 131h94v-815h-94l4 133q-49 -78 -133 -124t-176 -46q-113 2 -206 65t-144.5 164t-49.5 216zM147 410q-2 -140 85.5 -244t220.5 -107q136 0 222 104.5t83 246.5q0 159 -88 256 q-85 94 -217 94q-133 -3 -220.5 -106.5t-85.5 -243.5zM252 1167q0 95 66 161.5t161 66.5q91 0 156 -66.5t65 -161.5q0 -91 -65 -156t-156 -65q-95 0 -161 65t-66 156zM340 1167q0 -57 40 -99t99 -42q56 0 99 43t43 98q0 60 -43 104t-99 44q-59 0 -99 -43.5t-40 -104.5z" />
<glyph unicode="&#xe6;" horiz-adv-x="1617" d="M51 408q-3 114 49 215t145 163.5t204 65.5q188 -8 305 -160v123h94v-119q59 72 138 114t165 42q141 0 250 -99t139 -241q2 -9 4 -26.5t4 -26.5v-8h-696q-18 -65 1.5 -136.5t63 -126.5t107 -91t127.5 -36q79 -3 158.5 22t126.5 77l75 -49q-109 -144 -360 -144 q-166 0 -283 133q-5 2 -11 11t-9 12v-123h-94v123q-49 -72 -133 -114t-172 -42q-167 3 -285 135.5t-113 305.5zM147 408q-3 -135 84 -239.5t218 -107.5q132 0 219.5 96.5t85.5 231.5v19v20q0 136 -86.5 235t-218.5 95t-218.5 -108t-83.5 -242zM872 545h564 q-40 95 -114.5 153.5t-170.5 59.5q-91 0 -172 -61.5t-107 -151.5z" />
<glyph unicode="&#xe8;" horiz-adv-x="927" d="M68 399q0 114 51 215.5t144 165.5t204 66q159 0 273.5 -116.5t129.5 -280.5v-9h-702q-11 -94 13.5 -170.5t74.5 -124t113.5 -74t132.5 -28.5q143 0 254 111l78 -54q-69 -71 -155.5 -108.5t-170 -39.5t-164 28.5t-141.5 86t-98 142.5t-37 190zM184 535h572 q-36 95 -113.5 155t-175.5 60q-93 0 -170.5 -61.5t-112.5 -153.5zM268 1190l82 47l182 -289h-96z" />
<glyph unicode="&#xe9;" horiz-adv-x="927" d="M68 399q0 114 51 215.5t144 165.5t204 66q159 0 273.5 -116.5t129.5 -280.5v-9h-702q-11 -94 13.5 -170.5t74.5 -124t113.5 -74t132.5 -28.5q143 0 254 111l78 -54q-69 -71 -155.5 -108.5t-170 -39.5t-164 28.5t-141.5 86t-98 142.5t-37 190zM184 535h572 q-36 95 -113.5 155t-175.5 60q-93 0 -170.5 -61.5t-112.5 -153.5zM416 948l182 289l82 -47l-168 -242h-96z" />
<glyph unicode="&#xea;" horiz-adv-x="927" d="M68 399q0 114 51 215.5t144 165.5t204 66q159 0 273.5 -116.5t129.5 -280.5v-9h-702q-11 -94 13.5 -170.5t74.5 -124t113.5 -74t132.5 -28.5q143 0 254 111l78 -54q-69 -71 -155.5 -108.5t-170 -39.5t-164 28.5t-141.5 86t-98 142.5t-37 190zM184 535h572 q-36 95 -113.5 155t-175.5 60q-93 0 -170.5 -61.5t-112.5 -153.5zM299 981l182 233l189 -233h-82l-107 133l-102 -133h-80z" />
<glyph unicode="&#xeb;" horiz-adv-x="927" d="M68 399q0 114 51 215.5t144 165.5t204 66q159 0 273.5 -116.5t129.5 -280.5v-9h-702q-11 -94 13.5 -170.5t74.5 -124t113.5 -74t132.5 -28.5q143 0 254 111l78 -54q-69 -71 -155.5 -108.5t-170 -39.5t-164 28.5t-141.5 86t-98 142.5t-37 190zM184 535h572 q-36 95 -113.5 155t-175.5 60q-93 0 -170.5 -61.5t-112.5 -153.5zM223 1090q0 36 26 62t62 26q39 0 65.5 -26t26.5 -62q0 -38 -26.5 -64.5t-65.5 -26.5q-37 0 -62.5 26.5t-25.5 64.5zM545 1090q0 35 26.5 61.5t61.5 26.5q36 0 62 -26t26 -62q0 -38 -25.5 -64.5t-62.5 -26.5 q-36 0 -62 26.5t-26 64.5z" />
<glyph unicode="&#xec;" horiz-adv-x="323" d="M-33 1190l82 47l182 -289h-96zM115 4v815h94v-815h-94z" />
<glyph unicode="&#xed;" horiz-adv-x="315" d="M102 948l183 289l82 -47l-168 -242h-97zM115 4h94v815h-94v-815z" />
<glyph unicode="&#xee;" horiz-adv-x="299" d="M-39 1034l189 201l188 -201h-80l-108 111l-109 -111h-80zM102 4v815h95v-815h-95z" />
<glyph unicode="&#xef;" horiz-adv-x="309" d="M-90 1090q0 36 26 62t62 26q39 0 65.5 -26t26.5 -62q0 -38 -26 -64.5t-66 -26.5q-37 0 -62.5 26.5t-25.5 64.5zM113 4v815h94v-815h-94zM231 1090q0 35 26.5 61.5t61.5 26.5q37 0 63 -26t26 -62q0 -38 -26 -64.5t-63 -26.5q-36 0 -62 26.5t-26 64.5z" />
<glyph unicode="&#xf2;" horiz-adv-x="946" d="M72 410q2 119 50 219t139.5 161.5t207.5 61.5q181 -3 294.5 -127.5t110.5 -314.5q3 -194 -106.5 -318.5t-296.5 -124.5q-123 1 -215 59.5t-138.5 158t-45.5 225.5zM166 410q0 -154 79.5 -251t225.5 -98q148 3 229.5 98.5t79.5 250.5q3 152 -82 248.5t-229 99.5 q-94 -3 -164.5 -53.5t-104.5 -127.5t-34 -167zM244 1190l82 47l182 -289h-96z" />
<glyph unicode="&#xf3;" horiz-adv-x="942" d="M70 412q-3 -192 106 -317.5t293 -125.5q188 1 297 124.5t106 318.5q3 188 -110.5 313.5t-294.5 128.5q-116 0 -207.5 -61.5t-139.5 -161.5t-50 -219zM164 412q-2 148 81 246t222 102q143 -3 228.5 -100t82.5 -248q2 -157 -79 -251.5t-230 -97.5q-147 3 -226 98.5 t-79 250.5zM424 973l180 289l84 -48l-170 -241h-94z" />
<glyph unicode="&#xf4;" horiz-adv-x="942" d="M70 410q2 119 50 219t139.5 161.5t207.5 61.5q181 -3 294.5 -127.5t110.5 -314.5q3 -194 -106.5 -318.5t-296.5 -124.5q-123 1 -215 59.5t-138.5 158t-45.5 225.5zM164 410q0 -154 79.5 -251t225.5 -98q148 3 229.5 98.5t79.5 250.5q3 152 -82 248.5t-229 99.5 q-94 -3 -164.5 -53.5t-104.5 -127.5t-34 -167zM285 1034l188 201l189 -201h-80l-109 111l-108 -111h-80z" />
<glyph unicode="&#xf6;" horiz-adv-x="942" d="M70 410q2 119 50 219t139.5 161.5t207.5 61.5q181 -3 294.5 -127.5t110.5 -314.5q3 -194 -106.5 -318.5t-296.5 -124.5q-123 1 -215 59.5t-138.5 158t-45.5 225.5zM164 410q0 -154 79.5 -251t225.5 -98q148 3 229.5 98.5t79.5 250.5q3 152 -82 248.5t-229 99.5 q-94 -3 -164.5 -53.5t-104.5 -127.5t-34 -167zM229 1090q0 36 26 62t62 26q39 0 66 -26t27 -62q0 -38 -26.5 -64.5t-66.5 -26.5q-37 0 -62.5 26.5t-25.5 64.5zM551 1090q0 35 26.5 61.5t61.5 26.5q36 0 62 -26t26 -62q0 -38 -25.5 -64.5t-62.5 -26.5q-36 0 -62 26.5 t-26 64.5z" />
<glyph unicode="&#xf8;" horiz-adv-x="937" d="M70 410q0 119 48.5 219t140.5 160.5t210 60.5q101 0 184 -45l78 123l86 -60l-82 -125q67 -57 100 -147t33 -186q0 -193 -108 -320t-291 -127q-93 0 -201 53l-65 -102l-88 55l73 109q-118 134 -118 332zM166 410q0 -157 78 -250l356 567q-61 25 -131 25q-142 0 -222.5 -97 t-80.5 -245zM322 98q56 -37 147 -37q148 0 227.5 96.5t79.5 252.5q0 154 -92 256z" />
<glyph unicode="&#xf9;" horiz-adv-x="892" d="M102 276v543h95v-543q0 -98 77 -161.5t166 -63.5q91 0 168.5 63.5t77.5 161.5v543h94v-543q0 -125 -97 -217t-243 -92q-144 0 -241 92t-97 217zM250 1190l82 47l182 -289h-96z" />
<glyph unicode="&#xfa;" horiz-adv-x="892" d="M102 276q0 -125 97 -217t241 -92q146 0 243 92t97 217v543h-94v-543q0 -98 -77.5 -161.5t-168.5 -63.5q-89 0 -166 63.5t-77 161.5v543h-95v-543zM397 948l183 289l82 -47l-168 -242h-97z" />
<glyph unicode="&#xfb;" horiz-adv-x="892" d="M102 276v543h95v-543q0 -98 77 -161.5t166 -63.5q91 0 168.5 63.5t77.5 161.5v543h94v-543q0 -125 -97 -217t-243 -92q-144 0 -241 92t-97 217zM256 981l182 233l189 -233h-82l-107 133l-102 -133h-80z" />
<glyph unicode="&#xfc;" horiz-adv-x="892" d="M102 276v543h95v-543q0 -98 77 -161.5t166 -63.5q91 0 168.5 63.5t77.5 161.5v543h94v-543q0 -125 -97 -217t-243 -92q-144 0 -241 92t-97 217zM197 1090q0 36 26 62t62 26q39 0 65.5 -26t26.5 -62q0 -38 -26.5 -64.5t-65.5 -26.5q-37 0 -62.5 26.5t-25.5 64.5zM518 1090 q0 35 26.5 61.5t61.5 26.5q36 0 62 -26t26 -62q0 -38 -25.5 -64.5t-62.5 -26.5q-36 0 -62 26.5t-26 64.5z" />
<glyph unicode="&#xfd;" horiz-adv-x="755" d="M14 819h101l260 -672l264 672h98l-475 -1212h-102l166 418zM299 948l182 289l82 -47l-168 -242h-96z" />
<glyph unicode="&#xff;" horiz-adv-x="755" d="M14 819h101l260 -672l264 672h98l-475 -1212h-102l166 418zM135 1090q0 36 26 62t62 26q39 0 65.5 -26t26.5 -62q0 -38 -26.5 -64.5t-65.5 -26.5q-37 0 -62.5 26.5t-25.5 64.5zM457 1090q0 35 26.5 61.5t61.5 26.5q36 0 62 -26t26 -62q0 -38 -25.5 -64.5t-62.5 -26.5 q-36 0 -62 26.5t-26 64.5z" />
<glyph unicode="&#x178;" horiz-adv-x="1155" d="M35 1346h115l425 -621l426 621h115l-493 -717v-629h-95v629zM326 1616q0 36 26 62t62 26q39 0 65.5 -26t26.5 -62q0 -38 -26 -64t-66 -26q-37 0 -62.5 26t-25.5 64zM647 1616q0 35 26.5 61.5t61.5 26.5q36 0 62 -26t26 -62q0 -38 -25.5 -64t-62.5 -26q-36 0 -62 26 t-26 64z" />
<glyph unicode="&#x2000;" horiz-adv-x="946" />
<glyph unicode="&#x2001;" horiz-adv-x="1892" />
<glyph unicode="&#x2002;" horiz-adv-x="946" />
<glyph unicode="&#x2003;" horiz-adv-x="1892" />
<glyph unicode="&#x2004;" horiz-adv-x="630" />
<glyph unicode="&#x2005;" horiz-adv-x="473" />
<glyph unicode="&#x2006;" horiz-adv-x="315" />
<glyph unicode="&#x2007;" horiz-adv-x="315" />
<glyph unicode="&#x2008;" horiz-adv-x="236" />
<glyph unicode="&#x2009;" horiz-adv-x="378" />
<glyph unicode="&#x200a;" horiz-adv-x="105" />
<glyph unicode="&#x2010;" horiz-adv-x="638" d="M143 522v94h353v-94h-353z" />
<glyph unicode="&#x2011;" horiz-adv-x="638" d="M143 522v94h353v-94h-353z" />
<glyph unicode="&#x2012;" horiz-adv-x="638" d="M143 522v94h353v-94h-353z" />
<glyph unicode="&#x2013;" horiz-adv-x="1309" d="M143 522v94h1024v-94h-1024z" />
<glyph unicode="&#x2014;" horiz-adv-x="2333" d="M143 522v94h2048v-94h-2048z" />
<glyph unicode="&#x201d;" horiz-adv-x="364" d="M31 1174l78 233h96l-109 -233h-65zM156 1174l77 233h97l-109 -233h-65z" />
<glyph unicode="&#x201e;" horiz-adv-x="442" d="M41 -170l78 233h96l-109 -233h-65zM166 -170l78 233h96l-109 -233h-65z" />
<glyph unicode="&#x202f;" horiz-adv-x="378" />
<glyph unicode="&#x205f;" horiz-adv-x="473" />
<glyph unicode="&#x25fc;" horiz-adv-x="819" d="M0 0v819h819v-819h-819z" />
</font>
</defs>
</svg>
